<?xml version="1.0" encoding="utf-8"?>
<!-- Generator: Adobe Illustrator 23.0.6, SVG Export Plug-In . SVG Version: 6.00 Build 0)  -->
<svg version="1.1" id="Camada_1" xmlns="http://www.w3.org/2000/svg" xmlns:xlink="http://www.w3.org/1999/xlink" x="0px" y="0px"
	 viewBox="0 0 88.6 34.9" style="enable-background:new 0 0 88.6 34.9;" xml:space="preserve">
<style type="text/css">
	.st0{fill:#FFFFFF;}
</style>
<g>
	<g>
		<g>
			<path class="st0" d="M58.6,32.9c-0.6,0.1-1.2,0.2-1.8,0.2c-1.5,0-2.2-1-2.2-2.4v-0.7c0-1.5,0.7-2.4,2.2-2.4c0.3,0,0.8,0,1.2,0.1
				v-1.8c0-0.1,0.1-0.2,0.2-0.2h0.5c0.1,0,0.2,0.1,0.2,0.2v6.9C58.9,32.8,58.8,32.9,58.6,32.9z M58,28.3c-0.3-0.1-0.8-0.1-1.2-0.1
				c-1,0-1.3,0.6-1.3,1.7v0.7c0,1.1,0.3,1.7,1.3,1.7c0.3,0,0.8,0,1.2-0.1V28.3z"/>
		</g>
		<g>
			<path class="st0" d="M64.2,30.5h-3.3v0.1c0,1.2,0.5,1.6,1.4,1.6c0.6,0,1.3,0,1.8-0.1c0,0,0,0,0,0c0.1,0,0.2,0,0.2,0.1v0.3
				c0,0.1,0,0.2-0.2,0.2c-0.6,0.1-1.1,0.2-1.8,0.2c-1.1,0-2.2-0.5-2.2-2.4v-0.9c0-1.4,0.8-2.3,2.2-2.3c1.4,0,2.2,0.9,2.2,2.3v0.5
				C64.4,30.5,64.3,30.5,64.2,30.5z M63.5,29.8c0-1.1-0.4-1.5-1.3-1.5c-0.8,0-1.3,0.5-1.3,1.5v0.1L63.5,29.8L63.5,29.8z"/>
		</g>
		<g>
			<path class="st0" d="M66.4,33h-0.5c-0.1,0-0.2-0.1-0.2-0.2v-7c0-0.1,0.1-0.2,0.2-0.2h0.5c0.1,0,0.2,0.1,0.2,0.2v7
				C66.5,32.9,66.5,33,66.4,33z"/>
		</g>
		<g>
			<path class="st0" d="M68.8,26.7h-0.5c-0.1,0-0.2-0.1-0.2-0.2v-0.8c0-0.1,0.1-0.2,0.2-0.2h0.5c0.1,0,0.2,0.1,0.2,0.2v0.8
				C69,26.6,68.9,26.7,68.8,26.7z M68.8,33h-0.5c-0.1,0-0.2-0.1-0.2-0.2v-5c0-0.1,0.1-0.2,0.2-0.2h0.5c0.1,0,0.2,0.1,0.2,0.2v5
				C69,32.9,68.9,33,68.8,33z"/>
		</g>
		<g>
			<path class="st0" d="M74.6,27.8l-1.3,4.7c-0.1,0.4-0.5,0.6-0.9,0.6c-0.4,0-0.8-0.1-0.9-0.6l-1.3-4.7c0,0,0,0,0-0.1
				c0-0.1,0.1-0.2,0.2-0.2h0.5c0.1,0,0.1,0.1,0.2,0.2l1.1,4.3c0.1,0.2,0.1,0.3,0.2,0.3c0.1,0,0.1,0,0.2-0.3l1.1-4.3
				c0-0.1,0.1-0.2,0.2-0.2h0.5C74.5,27.6,74.6,27.6,74.6,27.8C74.6,27.7,74.6,27.8,74.6,27.8z"/>
		</g>
		<g>
			<path class="st0" d="M79.6,30.5h-3.3v0.1c0,1.2,0.5,1.6,1.4,1.6c0.6,0,1.3,0,1.8-0.1c0,0,0,0,0,0c0.1,0,0.2,0,0.2,0.1v0.3
				c0,0.1,0,0.2-0.2,0.2c-0.6,0.1-1.1,0.2-1.8,0.2c-1.1,0-2.2-0.5-2.2-2.4v-0.9c0-1.4,0.8-2.3,2.2-2.3c1.4,0,2.2,0.9,2.2,2.3v0.5
				C79.8,30.5,79.8,30.5,79.6,30.5z M79,29.8c0-1.1-0.4-1.5-1.3-1.5c-0.8,0-1.3,0.5-1.3,1.5v0.1L79,29.8L79,29.8z"/>
		</g>
		<g>
			<path class="st0" d="M83.3,28.2c-0.5,0-0.9,0.1-1.4,0.4v4.1c0,0.1-0.1,0.2-0.2,0.2h-0.5c-0.1,0-0.2-0.1-0.2-0.2v-5
				c0-0.1,0.1-0.2,0.2-0.2h0.5c0.1,0,0.2,0.1,0.2,0.2V28c0.5-0.3,0.9-0.5,1.4-0.5c0.1,0,0.2,0.1,0.2,0.2v0.4
				C83.5,28.2,83.4,28.2,83.3,28.2z"/>
		</g>
		<g>
			<path class="st0" d="M88.6,27.8L87,33.5c-0.3,1.1-0.7,1.5-1.8,1.5c-0.3,0-0.6,0-0.8-0.1c-0.1,0-0.2-0.1-0.2-0.2v-0.4
				c0-0.1,0.1-0.2,0.2-0.2c0,0,0,0,0,0c0.2,0,0.7,0.1,0.9,0.1c0.6,0,0.8-0.1,1-0.8l0.1-0.4h-0.1c-0.3,0-0.6-0.1-0.7-0.7l-1.3-4.5
				c0,0,0,0,0-0.1c0-0.1,0.1-0.2,0.2-0.2h0.5c0.1,0,0.1,0.1,0.2,0.2l1.2,4.3c0,0.2,0.1,0.2,0.2,0.2h0.2l1.2-4.5
				c0-0.1,0.1-0.1,0.2-0.1h0.6C88.6,27.6,88.6,27.6,88.6,27.8C88.6,27.7,88.6,27.8,88.6,27.8z"/>
		</g>
	</g>
	<g>
		<g>
			<path class="st0" d="M38.1,25.6V22c-0.6,0.5-1.4,0.8-2.4,0.8c-2.5,0-4.3-1.6-4.3-4.2v-2.3c0-2.6,1.8-4.2,4.3-4.2
				c1.3,0,2.2,0.4,2.9,1.1c0.1-0.7,0.6-1.1,1.3-1.1H40c0.8,0,1.4,0.6,1.4,1.4v12.2c0,0.7-0.5,1.2-1.2,1.2h-0.9
				C38.5,26.7,38.1,26.3,38.1,25.6z M38.1,18.8V16c0-1.1-0.6-1.6-1.7-1.6c-1.2,0-1.7,0.6-1.7,1.6v2.8c0,1.1,0.6,1.6,1.7,1.6
				C37.5,20.4,38.1,19.9,38.1,18.8z"/>
		</g>
		<g>
			<path class="st0" d="M44.5,18.6V13c0-0.4,0.3-0.7,0.7-0.7H47c0.4,0,0.7,0.3,0.7,0.7v5.6c0,1.1,0.5,1.7,1.6,1.7
				c1.1,0,1.6-0.6,1.6-1.7V13c0-0.4,0.3-0.7,0.7-0.7h1.8c0.4,0,0.7,0.3,0.7,0.7v6.5l0.7,0.7c0.5,0.5,0.5,1.1,0,1.6l-0.6,0.6
				c-0.5,0.5-1.1,0.4-1.6,0l-1-1c-0.6,0.9-1.7,1.4-3.1,1.4C46.1,22.8,44.5,21.3,44.5,18.6z"/>
		</g>
		<g>
			<path class="st0" d="M57.4,18.8v-2.7c0-2.7,1.8-4.1,4.9-4.1c3.1,0,4.8,1.4,4.8,4v1.4c0,0.6-0.3,0.9-0.9,0.9h-5.6v0.8
				c0,1,0.5,1.4,1.8,1.4c1,0,1.5-0.3,1.5-0.9v-0.1c0-0.2,0.1-0.3,0.3-0.3h2.3c0.2,0,0.4,0.1,0.4,0.4v0.2c0,1.9-1.6,2.9-4.5,2.9
				C59.2,22.8,57.4,21.4,57.4,18.8z M60.6,15.6v0.8H64v-0.8c0-1-0.6-1.5-1.7-1.5C61.2,14.1,60.6,14.6,60.6,15.6z"/>
		</g>
		<g>
			<path class="st0" d="M70.3,21.8v-6.5l-0.7-0.7c-0.5-0.5-0.5-1.1,0-1.6l0.6-0.6c0.5-0.5,1.1-0.5,1.6,0l1.1,1.1
				c0.5-0.9,1.3-1.4,2.2-1.4h0.3c0.9,0,1.4,0.4,1.4,1.2v0.7c0,0.7-0.5,1.1-1.2,1.1h-0.4c-1.1,0-1.6,0.6-1.6,1.7v5
				c0,0.5-0.3,0.7-0.7,0.7h-1.8C70.6,22.5,70.3,22.2,70.3,21.8z"/>
		</g>
		<g>
			<path class="st0" d="M78.5,18.6v-2.4c0-2.7,1.9-4.2,5-4.2c3.2,0,5.1,1.5,5.1,4.2v2.4c0,2.7-1.9,4.2-5.1,4.2
				C80.4,22.8,78.5,21.3,78.5,18.6z M85.3,18.8v-2.9c0-1-0.6-1.6-1.8-1.6c-1.2,0-1.7,0.5-1.7,1.6v2.9c0,1,0.6,1.6,1.8,1.6
				C84.7,20.4,85.3,19.9,85.3,18.8z"/>
		</g>
	</g>
	<g>
		<g>
			<g>
				<path class="st0" d="M17.5,8.6c-0.2,0-0.5-0.1-0.7-0.3c-0.4-0.4-0.4-1,0-1.3l4.2-4.2c0.4-0.4,1-0.4,1.3,0c0.4,0.4,0.4,1,0,1.3
					l-4.2,4.2C17.9,8.5,17.7,8.6,17.5,8.6z"/>
			</g>
		</g>
		<g>
			<g>
				<path class="st0" d="M12.1,7c-0.5,0-0.9-0.4-0.9-0.9V0.9c0-0.5,0.4-0.9,0.9-0.9c0.5,0,0.9,0.4,0.9,0.9V6C13.1,6.6,12.6,7,12.1,7
					z"/>
			</g>
		</g>
		<g>
			<g>
				<path class="st0" d="M6.8,8.6c-0.2,0-0.5-0.1-0.6-0.3L1.9,4.2c-0.4-0.4-0.4-0.9,0-1.3c0.4-0.4,0.9-0.4,1.3,0L7.5,7
					c0.4,0.4,0.4,0.9,0,1.3C7.3,8.5,7.1,8.6,6.8,8.6z"/>
			</g>
		</g>
	</g>
	<g>
		<path class="st0" d="M23,13.2c0-0.2-0.2-0.4-0.5-0.4c-0.4,0-0.7-0.2-1-0.5c-0.3-0.3-0.8-0.8-1.6-0.8c0,0,0,0,0,0
			c-0.8,0-1.3,0.4-1.6,0.8c-0.3,0.3-0.5,0.5-1,0.5c-0.5,0-0.7-0.2-1-0.5c-0.3-0.3-0.8-0.8-1.6-0.8c0,0,0,0,0,0
			c-0.8,0-1.3,0.4-1.6,0.8c-0.3,0.3-0.5,0.5-0.9,0.5c0,0,0,0,0,0c0,0,0,0,0,0c0,0,0,0,0,0c0,0,0,0,0,0c-0.4,0-0.6-0.2-0.9-0.5
			c-0.4-0.3-0.8-0.8-1.6-0.8c0,0,0,0,0,0c-0.8,0-1.3,0.4-1.6,0.8c-0.3,0.3-0.5,0.5-1,0.5c-0.4,0-0.7-0.2-1-0.5
			c-0.4-0.3-0.8-0.8-1.6-0.8c0,0,0,0,0,0c-0.8,0-1.3,0.4-1.6,0.8c-0.3,0.3-0.5,0.5-1,0.5c-0.2,0-0.5,0.2-0.5,0.4L0,31
			c0,0.5,0.1,1,0.5,1.4C0.8,32.8,1.3,33,1.8,33h10.3h10.3c0.5,0,1-0.2,1.3-0.6c0.3-0.4,0.5-0.9,0.5-1.4L23,13.2z M14.8,14.5
			c0.7,0,1.3,0.6,1.3,1.3c0,0.7-0.6,1.3-1.3,1.3c-0.7,0-1.3-0.6-1.3-1.3C13.5,15.1,14.1,14.5,14.8,14.5z M9.5,14.5
			c0.7,0,1.3,0.6,1.3,1.3c0,0.7-0.6,1.3-1.3,1.3c-0.7,0-1.3-0.6-1.3-1.3C8.2,15.1,8.8,14.5,9.5,14.5z M12.2,25.7
			C12.1,25.7,12.1,25.7,12.2,25.7C12.1,25.7,12.1,25.7,12.2,25.7c-4.3,0-7.8-3.5-7.8-7.7c0-0.5,0.4-0.9,0.9-0.9
			c0.5,0,0.9,0.4,0.9,0.9c0,3.3,2.7,5.9,5.9,5.9c0,0,0,0,0,0c0,0,0,0,0,0c3.3,0,5.9-2.7,5.9-5.9c0-0.5,0.4-0.9,0.9-0.9
			c0.5,0,0.9,0.4,0.9,0.9C19.9,22.2,16.4,25.7,12.2,25.7z"/>
	</g>
</g>
</svg>
